<?xml version="1.0" encoding="UTF-8"?>
<svg version="1.1" xmlns="http://www.w3.org/2000/svg" width="24" height="26">
<path d="M0 0 C7.92 0 15.84 0 24 0 C24 8.58 24 17.16 24 26 C16.08 26 8.16 26 0 26 C0 17.42 0 8.84 0 0 Z " fill="#FEFDFD" transform="translate(0,0)"/>
<path d="M0 0 C4.15000506 1.48599439 7.63036482 3.52320624 11.3125 5.9375 C12.38113281 6.62714844 13.44976563 7.31679687 14.55078125 8.02734375 C15.76314453 9.00380859 15.76314453 9.00380859 17 10 C17 10.99 17 11.98 17 13 C14.79471728 13.67668949 12.58561391 14.34093498 10.375 15 C9.14523438 15.37125 7.91546875 15.7425 6.6484375 16.125 C3.26153174 16.93727719 0.46145571 17.17041013 -3 17 C-2.22095672 5.47835991 -2.22095672 5.47835991 0 0 Z " fill="#C13B5C" transform="translate(7,5)"/>
<path d="M0 0 C3.65316671 1.24976756 4.78065836 1.67098753 7 5 C5.56570999 5.67354499 4.12742943 6.33859701 2.6875 7 C1.48673828 7.556875 1.48673828 7.556875 0.26171875 8.125 C-2 9 -2 9 -5 9 C-3.7508258 5.54074837 -2.32472205 2.85306797 0 0 Z " fill="#FAEFF2" transform="translate(12,11)"/>
<path d="M0 0 C0 0.99 0 1.98 0 3 C-4.17737474 4.59138085 -7.53160785 5.21278058 -12 5 C-12 4.34 -12 3.68 -12 3 C-10.75336669 2.49166409 -9.50250613 1.99368855 -8.25 1.5 C-7.55390625 1.2215625 -6.8578125 0.943125 -6.140625 0.65625 C-4 0 -4 0 0 0 Z " fill="#BE3054" transform="translate(24,15)"/>
<path d="M0 0 C0.99 0.33 1.98 0.66 3 1 C3.36923077 6.53846154 3.36923077 6.53846154 1.5 8.875 C0.7575 9.431875 0.7575 9.431875 0 10 C0.020625 9.2575 0.04125 8.515 0.0625 7.75 C0.10240811 5.05832211 0.10240811 5.05832211 -0.5625 2.75 C-0.706875 2.1725 -0.85125 1.595 -1 1 C-0.67 0.67 -0.34 0.34 0 0 Z " fill="#D9859A" transform="translate(7,5)"/>
</svg>
